<svg width="592" height="221" viewBox="0 0 592 221" fill="none" xmlns="http://www.w3.org/2000/svg">
<path fill-rule="evenodd" clip-rule="evenodd" d="M0 296.255V312.778L0.207045 314.683L0.662589 316.505L1.36663 318.203L2.27769 319.736L3.39585 321.185L4.72106 322.427L6.25335 323.504L7.95126 324.374L190.582 405.295L192.818 406.206L195.055 406.993L197.291 407.655L199.569 408.152L201.805 408.525L204.083 408.773L206.319 408.856L208.597 408.815L210.833 408.649L213.111 408.359L215.305 407.904L217.542 407.324L219.737 406.62L221.932 405.792L224.085 404.798L226.238 403.68L584.998 204.442L586.613 203.407L588.021 202.165L589.222 200.798L590.216 199.307L591.003 197.651L591.541 195.911L591.831 194.089V177.524L591.541 179.387L591.003 181.127L590.216 182.742L589.222 184.274L588.021 185.641L586.613 186.842L584.998 187.877L226.238 387.156L224.085 388.274L221.932 389.226L219.737 390.096L217.542 390.8L215.305 391.38L213.111 391.794L210.833 392.125L208.597 392.291L206.319 392.332L204.083 392.208L201.805 392.001L199.569 391.628L197.291 391.09L195.055 390.469L192.818 389.682L190.582 388.771L7.95126 307.85L6.25335 306.939L4.72106 305.862L3.39585 304.62L2.27769 303.212L1.36663 301.638L0.662589 299.94L0.207045 298.16L0 296.255Z" fill="#20195F"/>
<path fill-rule="evenodd" clip-rule="evenodd" d="M7.95003 307.85L190.581 388.771C202.425 394.031 214.89 393.451 226.237 387.156L584.997 187.877C589.552 185.351 592.078 180.796 591.83 175.619C591.581 170.443 588.641 166.136 583.92 164.024L401.289 83.1028C389.445 77.8434 376.98 78.4231 365.633 84.7179L6.87329 283.997C2.31788 286.523 -0.208283 291.078 0.0401939 296.255C0.288671 301.431 3.22897 305.78 7.95003 307.85Z" fill="white"/>
<path fill-rule="evenodd" clip-rule="evenodd" d="M9.6083 304.082L192.239 385.003C202.882 389.724 214.064 389.227 224.251 383.554L583.011 184.275C586.158 182.536 587.897 179.388 587.732 175.785C587.566 172.141 585.578 169.242 582.224 167.751L399.593 86.8306C388.95 82.1095 377.769 82.6065 367.581 88.2801L8.82145 287.559C5.67407 289.298 3.93472 292.445 4.05896 296.048C4.22461 299.693 6.21244 302.592 9.56688 304.082H9.6083Z" fill="#7F01FF"/>
<path fill-rule="evenodd" clip-rule="evenodd" d="M374.514 125.113L365.559 130.378L364.155 131.169L362.656 131.759L361.123 132.262L359.555 132.62L357.952 132.833L356.286 132.931L354.556 132.915L352.849 132.751L351.109 132.501L349.276 132.108L347.468 131.626L345.625 130.999L343.777 130.255L341.955 129.422L340.069 128.474L338.179 127.409L336.286 126.286L334.416 125.015L332.541 123.628L330.664 122.181L328.782 120.618L326.957 118.994L325.126 117.253L323.321 115.422L321.542 113.503L319.788 111.495L318.06 109.398L316.387 107.239L314.741 104.992L313.12 102.656L311.555 100.259L310.075 97.7706L308.622 95.2517L307.287 92.7278L306.01 90.2016L304.85 87.6705L303.779 85.1651L302.766 82.6572L301.871 80.1444L301.064 77.6573L300.317 75.1678L299.66 72.7624L299.121 70.3521L298.67 67.9675L298.309 65.6085L298.008 63.3056L297.827 61.0563L297.707 58.8632L297.704 56.6652L297.764 54.5818L297.943 52.552L298.184 50.5784L298.544 48.6584L298.968 46.8531L299.511 45.1014L300.114 43.4058L300.84 41.8224L301.657 40.3231L302.507 38.9104L303.507 37.5794L304.601 36.391L305.728 35.2893L306.976 34.2996L308.347 33.4222L317.302 28.1567L315.96 29.0037L314.683 30.0237L313.526 31.0974L312.463 32.3138L311.463 33.6449L310.582 35.0295L309.795 36.5568L309.07 38.1403L308.463 39.7774L307.951 41.5571L307.5 43.3929L307.167 45.2824L306.899 47.2865L306.719 49.3162L306.659 51.3997L306.66 53.5391L306.752 55.7627L306.963 58.04L307.233 60.3149L307.595 62.6739L308.073 65.0281L308.643 67.4664L309.272 69.9023L309.989 72.3637L310.796 74.8508L311.691 77.3636L312.704 79.8714L313.805 82.405L314.965 84.936L316.242 87.4623L317.578 89.9861L319.03 92.5051L320.539 94.9631L322.076 97.3906L323.666 99.6987L325.312 101.946L327.015 104.132L328.713 106.201L330.466 108.209L332.246 110.129L334.051 111.959L335.881 113.7L337.738 115.353L339.589 116.888L341.497 118.362L343.341 119.722L345.239 120.962L347.134 122.144L348.994 123.181L350.88 124.128L352.733 124.989L354.609 125.703L356.452 126.33L358.231 126.842L360.034 127.207L361.804 127.486L363.539 127.619L365.241 127.666L366.908 127.567L368.511 127.354L370.078 126.996L371.611 126.493L373.08 125.875L374.514 125.113Z" fill="#FF8552"/>
<path d="M374.566 125.128C359.714 133.891 334.859 119.278 319.052 92.4884C303.245 65.6987 302.471 36.8771 317.324 28.1135C332.176 19.3498 357.031 33.9628 372.838 60.7525C388.645 87.5422 389.419 116.364 374.566 125.128Z" fill="#FFCD00"/>
<path fill-rule="evenodd" clip-rule="evenodd" d="M433.218 130.065L432.432 140.087V141.288L432.556 142.447L432.804 143.648L433.218 144.808L433.757 145.967L434.419 147.127L435.206 148.245L436.159 149.363L437.194 150.482L438.354 151.558L439.637 152.635L441.004 153.67L442.495 154.706L444.11 155.7L445.808 156.652L447.589 157.605L449.494 158.516L451.482 159.385L453.552 160.255L455.706 161.042L457.942 161.829L460.22 162.574L462.622 163.278L465.065 163.899L467.591 164.52L470.159 165.1L472.809 165.597L475.501 166.094L478.234 166.508L481.05 166.84L483.908 167.171L486.765 167.419L489.664 167.626L492.522 167.751L495.338 167.833H498.112L500.846 167.792L503.538 167.709L506.188 167.544L508.756 167.337L511.282 167.047L513.766 166.715L516.127 166.384L518.446 165.928L520.724 165.473L522.877 164.976L524.989 164.396L526.977 163.775L528.924 163.154L530.746 162.45L532.485 161.704L534.1 160.918L535.632 160.089L537.082 159.261L538.366 158.35L539.608 157.439L540.685 156.445L541.637 155.451L542.466 154.416L543.211 153.38L543.791 152.262L544.205 151.144L544.536 150.026L544.702 148.825L545.489 138.803L545.323 139.963L544.992 141.122L544.578 142.24L543.998 143.358L543.252 144.394L542.424 145.429L541.472 146.423L540.354 147.376L539.153 148.328L537.869 149.198L536.419 150.067L534.887 150.896L533.272 151.682L531.533 152.428L529.71 153.09L527.764 153.753L525.776 154.374L523.664 154.913L521.511 155.451L519.233 155.907L516.914 156.321L514.512 156.693L512.069 157.025L509.542 157.273L506.975 157.522L504.324 157.646L501.632 157.77L498.899 157.812H496.125L493.309 157.729L490.451 157.605L487.552 157.397L484.653 157.149L481.837 156.818L479.021 156.445L476.288 156.031L473.596 155.575L470.946 155.078L468.378 154.499L465.852 153.877L463.408 153.215L461.006 152.552L458.729 151.807L456.493 151.02L454.339 150.233L452.268 149.363L450.281 148.494L448.376 147.583L446.595 146.63L444.897 145.678L443.282 144.684L441.791 143.648L440.424 142.613L439.141 141.536L437.981 140.46L436.946 139.341L435.993 138.223L435.206 137.105L434.544 135.946L434.005 134.786L433.591 133.626L433.301 132.426L433.177 131.266L433.218 130.065Z" fill="#FF8552"/>
<path d="M545.473 138.796C546.459 126.117 522.119 113.883 491.108 111.47C460.096 109.056 434.156 117.378 433.169 130.056C432.183 142.734 456.523 154.968 487.535 157.382C518.546 159.795 544.486 151.474 545.473 138.796Z" fill="#FFCD00"/>
</svg>
