<svg width="22" height="22" viewBox="0 0 22 22" fill="none" xmlns="http://www.w3.org/2000/svg">
<rect width="22" height="22" rx="11" fill="#99EC64"/>
<g clip-path="url(#clip0_16906_24149)">
<path d="M10.7818 6.90785C10.1929 6.90785 9.28138 6.23832 8.32145 6.26252C7.05498 6.27865 5.89338 6.99658 5.23998 8.13398C3.92512 10.4169 4.90118 13.7887 6.18378 15.6441C6.81298 16.5475 7.55512 17.5639 8.53925 17.5317C9.48305 17.4913 9.838 16.9186 10.9835 16.9186C12.1209 16.9186 12.4435 17.5317 13.4438 17.5075C14.4602 17.4913 15.1055 16.5879 15.7267 15.6763C16.4446 14.6277 16.7431 13.6113 16.7592 13.5548C16.735 13.5467 14.7829 12.7965 14.7587 10.5379C14.7425 8.65025 16.2994 7.74679 16.372 7.70645C15.4847 6.40772 14.1214 6.26252 13.6455 6.23025C12.4032 6.13345 11.3626 6.90785 10.7818 6.90785ZM12.8791 5.00412C13.4035 4.37492 13.7503 3.49565 13.6535 2.62445C12.9033 2.65672 11.9999 3.12459 11.4594 3.75379C10.9754 4.31039 10.5559 5.20579 10.6689 6.06085C11.4997 6.12539 12.3548 5.63332 12.8791 5.00412Z" fill="#014DFF"/>
</g>
<defs>
<clipPath id="clip0_16906_24149">
<rect width="16.1333" height="16.1333" fill="white" transform="translate(2.93359 2.05334)"/>
</clipPath>
</defs>
</svg>
