<svg width="22" height="22" viewBox="0 0 22 22" fill="none" xmlns="http://www.w3.org/2000/svg">
<rect width="22" height="22" rx="11" fill="#99EC64"/>
<g clip-path="url(#clip0_16906_24152)">
<path d="M6.82718 4.15283L13.6726 11.0001L6.82792 17.8476C6.69814 17.7928 6.58446 17.6968 6.50843 17.5655C6.44917 17.4631 6.41797 17.347 6.41797 17.2287V4.77166C6.41797 4.49374 6.58663 4.2552 6.82718 4.15283ZM14.1479 11.4754L15.6953 13.0228L8.34321 17.28L14.1479 11.4754ZM16.2983 9.32558L18.1853 10.4184C18.5066 10.6044 18.6163 11.0157 18.4303 11.337C18.3714 11.4386 18.287 11.5231 18.1853 11.5819L16.2976 12.6746L14.6231 11.0001L16.2983 9.32558ZM8.34321 4.72019L15.696 8.9767L14.1479 10.5249L8.34321 4.72019Z" fill="#014DFF"/>
</g>
<defs>
<clipPath id="clip0_16906_24152">
<rect width="13.7867" height="16.1333" fill="white" transform="translate(5.57422 2.93335)"/>
</clipPath>
</defs>
</svg>
