<svg width="120" height="34" viewBox="0 0 120 34" fill="none" xmlns="http://www.w3.org/2000/svg">
<path d="M15.4127 14.7767C15.1454 14.6804 14.8834 14.5815 14.6294 14.4772C9.76383 12.5417 5.37679 9.08768 6.41407 6.23784C6.55309 5.85287 6.78835 5.50801 7.10915 5.21661C8.94577 3.50296 13.6456 3.60723 18.7945 5.48127C23.9462 7.35799 27.6141 10.2987 27.9162 12.801C27.975 13.2074 27.9349 13.6244 27.7905 14.0201C27.7317 14.1858 27.6542 14.3382 27.5659 14.4772C26.0287 17.0116 20.2836 16.5491 15.4127 14.7767ZM18.2198 7.06125C13.4397 5.32087 9.39757 5.38503 8.25069 6.45439C8.12237 6.57202 8.04217 6.6843 7.99672 6.81529C7.51283 8.1413 10.376 10.9751 15.2576 12.9186C15.5009 13.0176 15.7415 13.1085 15.9875 13.1994C21.0001 15.0253 25.3631 14.8702 26.141 13.5923C26.1731 13.5442 26.1945 13.4988 26.2132 13.448C26.2613 13.3143 26.2747 13.1806 26.2506 13.0283C26.0608 11.451 23.0051 8.8043 18.2198 7.06125Z" fill="#20195F"/>
<path d="M5.79652 23.0481C4.44378 22.5562 4.09357 21.6981 4.01604 21.15C4.00535 21.0377 4 20.9549 4 20.8666C4 20.6715 4.01871 20.4843 4.05881 20.3132C4.06416 20.2785 4.07218 20.2464 4.0802 20.2117C4.09624 20.1421 4.11763 20.07 4.14436 19.9951C4.17644 19.9042 4.2112 19.8133 4.25665 19.7251C5.25917 17.4688 9.435 14.7312 14.6668 12.9026C14.8593 12.8358 15.0732 12.8465 15.263 12.9186C15.4983 13.0149 15.7415 13.1058 15.9875 13.1967C21.0001 15.0226 25.3631 14.8675 26.141 13.5897C26.3495 13.2475 26.7693 13.1004 27.1462 13.2368H27.1489C27.5258 13.3758 27.7531 13.7608 27.6916 14.1564C27.2852 16.763 22.5186 19.6663 17.9738 21.3906C17.4097 21.6072 16.851 21.8023 16.3163 21.9707C12.8623 23.1043 9.57402 23.6176 7.30431 23.3743C7.29094 23.3743 7.28025 23.3716 7.26688 23.3689C6.67874 23.3048 6.19485 23.1925 5.79652 23.0481ZM5.70028 20.6848C5.70028 20.6875 5.6976 20.6929 5.6976 20.6955C5.68691 20.741 5.68156 20.7945 5.68156 20.8559C5.68156 20.8827 5.68156 20.9067 5.68424 20.9361C5.73236 21.281 6.43813 21.5911 7.47541 21.7007C7.4861 21.7007 7.49947 21.7034 7.51284 21.7061C9.55531 21.9173 12.5709 21.4307 15.7977 20.3721C16.311 20.209 16.8376 20.0245 17.3723 19.8187C17.3723 19.8187 17.3723 19.8187 17.375 19.8187C20.3344 18.6958 22.6817 17.3618 24.1814 16.1695C21.7059 16.4582 18.3962 15.8647 15.41 14.7767C15.247 14.7178 15.0866 14.6564 14.9261 14.5949C9.83869 16.4235 6.43011 18.9471 5.79117 20.4229C5.78315 20.4442 5.77246 20.463 5.76176 20.4817C5.7484 20.5084 5.74038 20.5351 5.73236 20.5592C5.72434 20.5993 5.71364 20.6421 5.70028 20.6848Z" fill="#20195F"/>
<path d="M13.1457 28.5366C7.97533 26.6545 4.21922 23.5962 4.01337 21.1019C3.97594 20.6474 4.30477 20.2464 4.75924 20.1956C5.21372 20.1448 5.62275 20.463 5.68691 20.9148C5.73771 21.281 6.44348 21.5911 7.48076 21.7034C7.49145 21.7061 7.50482 21.7061 7.51551 21.7088C9.55798 21.9173 12.5736 21.4307 15.803 20.3747C16.3324 20.2036 16.859 20.0192 17.375 19.8213C17.5808 19.7438 17.8054 19.7465 18.0086 19.8347C22.3796 21.7141 25.3818 24.3554 25.6545 26.5636C25.7133 26.9753 25.6732 27.3924 25.5288 27.7827C24.4274 30.7983 18.3267 30.4213 13.1457 28.5366ZM7.32837 23.3796C8.71052 24.6121 10.9107 25.9354 13.7205 26.9566C19.364 29.0098 23.4783 28.4858 23.9462 27.2052C23.9943 27.0743 24.005 26.9352 23.9836 26.7829C23.8205 25.4702 21.5989 23.2727 17.6503 21.5136C17.2119 21.6767 16.7654 21.8317 16.319 21.9734C12.873 23.1016 9.59808 23.6122 7.32837 23.3796Z" fill="#20195F"/>
<path d="M7.39253 22.5375H7.39521M15.4127 14.7767C15.1454 14.6804 14.8834 14.5815 14.6294 14.4772C9.76383 12.5417 5.37679 9.08768 6.41407 6.23784C6.55309 5.85287 6.78835 5.50801 7.10915 5.21661C8.94577 3.50296 13.6456 3.60723 18.7945 5.48127C23.9462 7.35799 27.6141 10.2987 27.9162 12.801C27.975 13.2074 27.9349 13.6244 27.7905 14.0201C27.7317 14.1858 27.6542 14.3382 27.5659 14.4772C26.0287 17.0116 20.2836 16.5491 15.4127 14.7767ZM18.2198 7.06125C13.4397 5.32087 9.39757 5.38503 8.25069 6.45439C8.12237 6.57202 8.04217 6.6843 7.99672 6.81529C7.51283 8.1413 10.376 10.9751 15.2576 12.9186C15.5009 13.0176 15.7415 13.1085 15.9875 13.1994C21.0001 15.0253 25.3631 14.8702 26.141 13.5923C26.1731 13.5442 26.1945 13.4988 26.2132 13.448C26.2613 13.3143 26.2747 13.1806 26.2506 13.0283C26.0608 11.451 23.0051 8.8043 18.2198 7.06125ZM5.79652 23.0481C4.44378 22.5562 4.09357 21.6981 4.01604 21.15C4.00535 21.0377 4 20.9549 4 20.8666C4 20.6715 4.01871 20.4843 4.05881 20.3132C4.06416 20.2785 4.07218 20.2464 4.0802 20.2117C4.09624 20.1421 4.11763 20.07 4.14436 19.9951C4.17644 19.9042 4.2112 19.8133 4.25665 19.7251C5.25917 17.4688 9.435 14.7312 14.6668 12.9026C14.8593 12.8358 15.0732 12.8465 15.263 12.9186C15.4983 13.0149 15.7415 13.1058 15.9875 13.1967C21.0001 15.0226 25.3631 14.8675 26.141 13.5897C26.3495 13.2475 26.7693 13.1004 27.1462 13.2368H27.1489C27.5258 13.3758 27.7531 13.7608 27.6916 14.1564C27.2852 16.763 22.5186 19.6663 17.9738 21.3906C17.4097 21.6072 16.851 21.8023 16.3163 21.9707C12.8623 23.1043 9.57402 23.6176 7.30431 23.3743C7.29094 23.3743 7.28025 23.3716 7.26688 23.3689C6.67874 23.3048 6.19485 23.1925 5.79652 23.0481ZM5.70028 20.6848C5.70028 20.6875 5.6976 20.6929 5.6976 20.6955C5.68691 20.741 5.68156 20.7945 5.68156 20.8559C5.68156 20.8827 5.68156 20.9067 5.68424 20.9361C5.73236 21.281 6.43813 21.5911 7.47541 21.7007C7.4861 21.7007 7.49947 21.7034 7.51284 21.7061C9.55531 21.9173 12.5709 21.4307 15.7977 20.3721C16.311 20.209 16.8376 20.0245 17.3723 19.8187C17.3723 19.8187 17.3723 19.8187 17.375 19.8187C20.3344 18.6958 22.6817 17.3618 24.1814 16.1695C21.7059 16.4582 18.3962 15.8647 15.41 14.7767C15.247 14.7178 15.0866 14.6564 14.9261 14.5949C9.83869 16.4235 6.43011 18.9471 5.79117 20.4229C5.78315 20.4442 5.77246 20.463 5.76176 20.4817C5.7484 20.5084 5.74038 20.5351 5.73236 20.5592C5.72434 20.5993 5.71364 20.6421 5.70028 20.6848ZM13.1457 28.5366C7.97533 26.6545 4.21922 23.5962 4.01337 21.1019C3.97594 20.6474 4.30477 20.2464 4.75924 20.1956C5.21372 20.1448 5.62275 20.463 5.68691 20.9148C5.73771 21.281 6.44348 21.5911 7.48076 21.7034C7.49145 21.7061 7.50482 21.7061 7.51551 21.7088C9.55798 21.9173 12.5736 21.4307 15.803 20.3747C16.3324 20.2036 16.859 20.0192 17.375 19.8213C17.5808 19.7438 17.8054 19.7465 18.0086 19.8347C22.3796 21.7141 25.3818 24.3554 25.6545 26.5636C25.7133 26.9753 25.6732 27.3924 25.5288 27.7827C24.4274 30.7983 18.3267 30.4213 13.1457 28.5366ZM7.32837 23.3796C8.71052 24.6121 10.9107 25.9354 13.7205 26.9566C19.364 29.0098 23.4783 28.4858 23.9462 27.2052C23.9943 27.0743 24.005 26.9352 23.9836 26.7829C23.8205 25.4702 21.5989 23.2727 17.6503 21.5136C17.2119 21.6767 16.7654 21.8317 16.319 21.9734C12.873 23.1016 9.59808 23.6122 7.32837 23.3796Z" stroke="#20195F" stroke-miterlimit="10"/>
<path d="M31.9414 23.576V21.968L38.0614 13.232H32.1814V10.856H41.8534V12.464L35.7334 21.2H42.0934V23.576H31.9414Z" fill="#20195F"/>
<path d="M48.1825 23.84C46.9985 23.84 45.9585 23.568 45.0625 23.024C44.1825 22.48 43.4945 21.712 42.9985 20.72C42.5025 19.712 42.2545 18.544 42.2545 17.216C42.2545 15.84 42.5025 14.656 42.9985 13.664C43.5105 12.672 44.2065 11.912 45.0865 11.384C45.9825 10.856 47.0065 10.592 48.1585 10.592C49.2945 10.592 50.2945 10.856 51.1585 11.384C52.0225 11.912 52.6945 12.672 53.1745 13.664C53.6705 14.656 53.9185 15.84 53.9185 17.216C53.9185 17.36 53.9185 17.496 53.9185 17.624C53.9185 17.752 53.9105 17.912 53.8945 18.104H44.2225V16.04H51.8305L51.0385 17.216C51.0385 15.696 50.7825 14.608 50.2705 13.952C49.7585 13.296 49.0545 12.968 48.1585 12.968C47.2465 12.968 46.5105 13.304 45.9505 13.976C45.4065 14.632 45.1345 15.712 45.1345 17.216C45.1345 18.624 45.4065 19.664 45.9505 20.336C46.5105 20.992 47.2785 21.32 48.2545 21.32C48.8945 21.32 49.4465 21.176 49.9105 20.888C50.3745 20.6 50.7345 20.128 50.9905 19.472L53.6305 20.36C53.2465 21.448 52.5745 22.304 51.6145 22.928C50.6705 23.536 49.5265 23.84 48.1825 23.84Z" fill="#20195F"/>
<path d="M62.8744 23.576V16.208C62.8744 15.168 62.6104 14.384 62.0824 13.856C61.5704 13.312 60.9384 13.04 60.1864 13.04C59.4344 13.04 58.7944 13.312 58.2664 13.856C57.7544 14.384 57.4984 15.168 57.4984 16.208H56.7784C56.7784 15.04 56.9704 14.04 57.3544 13.208C57.7384 12.36 58.2744 11.712 58.9624 11.264C59.6504 10.816 60.4264 10.592 61.2904 10.592C62.1544 10.592 62.9144 10.792 63.5704 11.192C64.2264 11.592 64.7384 12.168 65.1064 12.92C65.4744 13.672 65.6584 14.56 65.6584 15.584V23.576H62.8744ZM54.7144 23.576V10.856H57.4984V23.576H54.7144Z" fill="#20195F"/>
<path d="M67.5694 23.576V10.496C67.5694 9.04003 67.9454 7.95203 68.6974 7.23203C69.4494 6.49603 70.4894 6.12803 71.8174 6.12803C72.2014 6.12803 72.5374 6.15203 72.8254 6.20003C73.1294 6.24803 73.4414 6.31204 73.7614 6.39204V8.81604C73.5214 8.75204 73.2734 8.69603 73.0174 8.64803C72.7774 8.60004 72.5134 8.57604 72.2254 8.57604C71.6174 8.57604 71.1534 8.72804 70.8334 9.03204C70.5294 9.33604 70.3774 9.76803 70.3774 10.328V23.576H67.5694ZM65.8414 13.232V10.856H76.3294V13.232H65.8414ZM75.3934 23.576V10.856H78.1774V23.576H75.3934ZM76.7854 9.29603C76.3054 9.29603 75.8974 9.14403 75.5614 8.84003C75.2414 8.53604 75.0814 8.13603 75.0814 7.64003C75.0814 7.12803 75.2414 6.72003 75.5614 6.41603C75.8974 6.09604 76.3054 5.93604 76.7854 5.93604C77.2654 5.93604 77.6654 6.09604 77.9854 6.41603C78.3214 6.72003 78.4894 7.12803 78.4894 7.64003C78.4894 8.13603 78.3214 8.53604 77.9854 8.84003C77.6654 9.14403 77.2654 9.29603 76.7854 9.29603Z" fill="#20195F"/>
<path d="M86.633 23.84C85.321 23.84 84.257 23.352 83.441 22.376C82.641 21.4 82.241 20.016 82.241 18.224V16.208C82.241 14.416 82.641 13.032 83.441 12.056C84.257 11.08 85.321 10.592 86.633 10.592C87.625 10.592 88.497 10.856 89.249 11.384C90.001 11.912 90.585 12.672 91.001 13.664C91.417 14.64 91.625 15.824 91.625 17.216C91.625 18.592 91.417 19.776 91.001 20.768C90.585 21.76 90.001 22.52 89.249 23.048C88.497 23.576 87.625 23.84 86.633 23.84ZM80.105 27.776V10.856H82.889V13.928L82.505 17.216L82.889 20.456V27.776H80.105ZM85.745 21.368C86.641 21.368 87.361 21.032 87.905 20.36C88.465 19.688 88.745 18.64 88.745 17.216C88.745 15.792 88.465 14.744 87.905 14.072C87.361 13.4 86.641 13.064 85.745 13.064C84.849 13.064 84.121 13.4 83.561 14.072C83.017 14.744 82.745 15.792 82.745 17.216C82.745 18.64 83.017 19.688 83.561 20.36C84.121 21.032 84.849 21.368 85.745 21.368Z" fill="#20195F"/>
<path d="M100.541 23.576C100.445 23.16 100.365 22.736 100.301 22.304C100.253 21.872 100.229 21.448 100.229 21.032V15.656C100.229 14.68 99.9806 13.984 99.4846 13.568C99.0046 13.152 98.4286 12.944 97.7566 12.944C97.1326 12.944 96.5966 13.12 96.1486 13.472C95.7166 13.824 95.4046 14.36 95.2126 15.08L92.5726 14.336C92.9086 13.104 93.5486 12.176 94.4926 11.552C95.4526 10.912 96.5966 10.592 97.9246 10.592C99.5246 10.592 100.773 11.016 101.669 11.864C102.565 12.712 103.013 13.88 103.013 15.368V20.744C103.013 21.688 103.133 22.632 103.373 23.576H100.541ZM96.0526 23.84C94.9006 23.84 93.9886 23.52 93.3166 22.88C92.6606 22.24 92.3326 21.416 92.3326 20.408C92.3326 19.448 92.6526 18.616 93.2926 17.912C93.9486 17.208 94.9486 16.736 96.2926 16.496L100.901 15.728V17.72L97.2526 18.464C96.4846 18.608 95.9406 18.832 95.6206 19.136C95.3006 19.44 95.1406 19.792 95.1406 20.192C95.1406 20.528 95.2766 20.84 95.5486 21.128C95.8206 21.4 96.2446 21.536 96.8206 21.536C97.3646 21.536 97.8926 21.408 98.4046 21.152C98.9326 20.896 99.3646 20.528 99.7006 20.048C100.053 19.552 100.229 18.96 100.229 18.272H101.021C101.021 19.408 100.797 20.4 100.349 21.248C99.9006 22.08 99.3006 22.72 98.5486 23.168C97.7966 23.616 96.9646 23.84 96.0526 23.84Z" fill="#20195F"/>
<path d="M106.789 28.064C106.389 28.064 106.013 28.04 105.661 27.992C105.325 27.944 104.997 27.872 104.677 27.776V25.232C104.981 25.328 105.293 25.4 105.613 25.448C105.933 25.512 106.261 25.544 106.597 25.544C107.333 25.544 107.909 25.392 108.325 25.088C108.757 24.8 109.077 24.296 109.285 23.576L112.909 10.856H115.765L111.877 23.576C111.509 24.76 111.085 25.672 110.605 26.312C110.141 26.952 109.589 27.4 108.949 27.656C108.325 27.928 107.605 28.064 106.789 28.064ZM107.533 23.576L103.645 10.856H106.621L110.317 23.576H107.533Z" fill="#20195F"/>
</svg>
